# xmcd
#
# Track frame offsets:
#	150
#	19300
#	37945
#	45335
#	66045
#	77947
#	92342
#	118942
#	130530
#	154717
#	171265
#	190485
#	198425
#	213425
#
# Disc length: 3118 seconds
#
# Revision: 0
# Processed by: cddbd v1.4PL0 Copyright (c) Steve Scherf et al.
# Submitted via: EasyCDDAExtractor 4.6.9.1
#
DISCID=b70c2c0e
DTITLE=The Masterless Men - Ode to Age
DYEAR=1993
DGENRE=Celtic
TTITLE0=Portland Town
TTITLE1=The Leaving of Nancy
TTITLE2=The Masons Apron_The Devils Dream
TTITLE3=Silver Sea
TTITLE4=Fox on the Run
TTITLE5=Botany Bay
TTITLE6=There were Roses
TTITLE7=The Leprechaun
TTITLE8=The Boston Rose
TTITLE9=The Mingulay Boat Song
TTITLE10=Nancy Spain
TTITLE11=Shuckin The Corn_Foggy Mountain Breakdown
TTITLE12=The Boys of the Old Brigade
TTITLE13=An Ode to Age
EXTD=
EXTT0=
EXTT1=
EXTT2=
EXTT3=
EXTT4=
EXTT5=
EXTT6=
EXTT7=
EXTT8=
EXTT9=
EXTT10=
EXTT11=
EXTT12=
EXTT13=
PLAYORDER=
